<?xml version="1.0" encoding="UTF-8" standalone="no"?>
<!-- Generator: Adobe Illustrator 16.0.0, SVG Export Plug-In . SVG Version: 6.00 Build 0)  -->

<svg
   xmlns:svg="http://www.w3.org/2000/svg"
   xmlns="http://www.w3.org/2000/svg"
   xmlns:sodipodi="http://sodipodi.sourceforge.net/DTD/sodipodi-0.dtd"
   version="1.1"
   id="Capa_1"
   x="0px"
   y="0px"
   width="89.237"
   height="93.483002"
   viewBox="0 0 89.237001 93.483"
   xml:space="preserve">
<g
   id="g3"
   transform="matrix(0.5,0,0,0.5,-1.5843716,0.7919354)">
	<g
   id="g5">
		<path
   d="m 178.106,69.208 c -0.832,-1.254 -2.632,-1.802 -4.065,-1.421 -2.534,-9.255 -15.59,-19.51 -20.687,-24.465 C 139.082,29.44 123.333,16.417 106.437,5.84 67.382,-18.61 34.875,40.492 6.303,58.297 c -2.39,1.49 -1.759,4.118 0.005,5.239 0.044,0.609 0.09,1.217 0.139,1.825 0.002,0.152 0.004,0.299 0.035,0.453 2.855,36.991 -7.745,77.139 1.934,112.962 0.789,2.919 4.482,3.357 6.398,1.787 0.216,0.11 0.408,0.246 0.672,0.303 25.214,5.52 51.129,5.77 76.829,5.617 25.845,-0.153 53.044,1.611 78.709,-0.789 2.039,-0.19 3.389,-1.928 3.617,-3.675 0.322,0.331 0.61,0.698 0.961,1.001 0.807,0.696 2.196,0.497 2.478,-0.654 1.933,-7.92 -0.748,-16.642 -1.016,-24.801 -0.356,-10.892 0.769,-21.888 1.765,-32.719 1.403,-15.286 8.412,-41.866 -0.723,-55.638 z m -12.914,1.309 c -0.758,0.178 -1.518,0.439 -2.277,0.748 -1.096,-0.827 -2.179,-1.649 -3.133,-2.5 -3.346,-2.979 -6.547,-6.114 -9.897,-9.085 -0.896,-0.794 -1.934,-0.612 -2.594,-0.013 -0.419,-3.49 -0.841,-6.99 -1.341,-10.481 6.649,6.866 13.001,14.045 19.242,21.331 z m -7.011,3.358 c -3.148,2.126 -6.09,4.787 -8.397,6.937 -0.011,-5.263 -1.218,-10.884 -1.832,-15.73 -0.09,-0.7 -0.172,-1.41 -0.258,-2.113 2.816,3.14 5.76,6.158 8.76,9.124 0.557,0.554 1.136,1.161 1.727,1.782 z m -17.872,-8.793 c 0.393,7.152 -0.115,15.387 2.102,22.178 0.05,0.151 0.142,0.262 0.206,0.399 -11.112,11.106 -21.123,23.412 -33.155,33.524 -1.676,-0.213 -2.994,1.11 -3.256,2.651 -0.35,0.272 -0.676,0.569 -1.027,0.838 C 87.87,137.825 66.982,116.748 54.061,105.718 51.652,103.66 49.333,101.522 46.994,99.401 46.762,84.214 39.149,42.757 56.08,40.69 c 28.234,-3.446 55.005,0.075 82.986,3.045 0.184,7.118 0.855,14.262 1.243,21.347 z M 102.013,13.409 c 10.032,5.954 19.199,12.841 27.783,20.349 -4.586,-0.827 -9.227,-1.414 -13.877,-1.906 C 104.122,24.198 91.537,18.161 80.017,10.078 87.139,8.262 94.455,8.924 102.013,13.409 Z m -26.212,-1.97 c 7.788,7.076 16.523,13.59 25.582,19.302 C 97.336,30.554 93.292,30.424 89.272,30.39 86.137,28.164 82.14,26.44 79.212,24.41 75.226,21.646 71.43,18.6 67.613,15.595 c 2.703,-1.672 5.431,-3.081 8.188,-4.156 z m -10.765,5.83 c 4.329,3.865 8.715,7.657 13.219,11.321 0.628,0.511 1.283,1.067 1.951,1.631 -2.756,-0.071 -5.791,-0.144 -8.943,-0.131 -1.627,-0.789 -3.587,-1.315 -4.82,-1.914 -3.053,-1.484 -6.039,-3.244 -8.657,-5.425 2.397,-1.985 4.814,-3.823 7.25,-5.482 z m -9.711,7.567 c 2.289,2.151 4.872,3.949 7.568,5.558 -6.259,0.474 -12.125,1.604 -15.873,4.123 -7.314,4.915 -9.667,14.814 -9.82,25.82 -0.731,-0.492 -1.441,-1.016 -2.125,-1.567 -2.234,-1.8 -4.376,-3.838 -6.136,-6.109 -1.343,-1.733 -4.103,0.498 -2.993,2.309 1.805,2.945 4.285,5.409 6.882,7.66 1.167,1.012 2.762,2.593 4.454,3.121 0.126,2.882 0.364,5.794 0.675,8.675 -3.81,-1.17 -7.714,-4.538 -10.465,-6.689 -3.423,-2.675 -6.611,-5.641 -9.763,-8.639 12.237,-8.461 24.659,-23.03 37.596,-34.262 z M 12.987,64.983 c -0.182,-0.876 -0.358,-1.753 -0.546,-2.628 1.004,-0.535 2.008,-1.134 3.014,-1.766 4.123,4.25 8.331,8.428 12.854,12.249 2.726,2.303 6.329,5.448 10.116,5.543 0.708,5.477 1.595,10.723 2.338,15.264 C 31.121,84.477 21.953,74.857 12.987,64.983 Z m 2.377,103.587 c -1.41,-29.791 3.095,-60.586 -0.241,-90.151 8.915,11.116 19.762,21.182 29.87,30.607 6.602,6.156 14.313,13.269 22.712,19.002 -9.284,2.277 -18.301,11.26 -25.393,17.109 -9.141,7.539 -18.137,15.435 -26.948,23.433 z m 82.848,8.869 c -26.895,0.479 -53.565,-0.389 -80.343,-2.797 7.667,-5.447 14.885,-11.669 22.239,-17.436 10.234,-8.023 21.28,-14.86 31.567,-22.613 1.103,-0.831 1.592,-1.932 1.669,-3.012 5.931,3.417 12.14,5.956 18.508,6.833 7.384,1.018 14.48,-2.717 20.823,-7.744 9.319,6.729 18.374,13.835 27.289,21.078 5.855,4.76 24.377,16.494 25.018,24.598 0.028,0.342 0.106,0.66 0.212,0.962 -21.744,-2.98 -45.359,-0.253 -66.982,0.131 z m 71.257,-47.841 c -0.83,9.172 -3.194,24.646 -1.303,37.229 -10.222,-13.02 -36.908,-31.855 -50.279,-40.667 3.588,-3.356 6.847,-6.836 9.654,-9.66 9.761,-9.813 23.523,-31.007 38.256,-36.495 0.129,0.053 0.253,0.124 0.383,0.17 1.028,0.363 2.039,-0.202 2.585,-1.05 0.751,-0.165 1.503,-0.337 2.257,-0.408 0.241,-0.022 0.465,-0.099 0.693,-0.164 0.202,4.812 0.825,9.664 0.728,14.488 -0.245,12.207 -1.874,24.411 -2.974,36.557 z"
   id="path7"
   connector-curvature="0"
   inkscape:connector-curvature="0" />
		<path
   d="M 118.512,74.562 C 107.251,70.661 90.288,74.117 78.477,74.305 76.504,74.336 51.385,73.179 54.33,78.724 c 3.006,5.662 24.378,2.802 29.697,2.887 10.269,0.163 24.68,3.051 34.485,-0.346 3.307,-1.146 3.307,-5.557 0,-6.703 z"
   id="path9"
   connector-curvature="0"
   inkscape:connector-curvature="0" />
		<path
   d="m 88.748,57.537 c -2.549,-3.214 -8.247,-2.276 -11.837,-2.302 -6.492,-0.049 -13.339,-0.368 -19.789,0.399 -3.336,0.396 -3.335,4.791 0,5.187 5.556,0.661 11.282,0.374 16.874,0.74 4.428,0.291 9.066,1.608 13.443,0.93 2.456,-0.38 2.517,-3.431 1.309,-4.954 z"
   id="path11"
   connector-curvature="0"
   inkscape:connector-curvature="0" />
	</g>
</g>
<g
   id="g13"
   transform="translate(0,-93.483003)">
</g>
<g
   id="g15"
   transform="translate(0,-93.483003)">
</g>
<g
   id="g17"
   transform="translate(0,-93.483003)">
</g>
<g
   id="g19"
   transform="translate(0,-93.483003)">
</g>
<g
   id="g21"
   transform="translate(0,-93.483003)">
</g>
<g
   id="g23"
   transform="translate(0,-93.483003)">
</g>
<g
   id="g25"
   transform="translate(0,-93.483003)">
</g>
<g
   id="g27"
   transform="translate(0,-93.483003)">
</g>
<g
   id="g29"
   transform="translate(0,-93.483003)">
</g>
<g
   id="g31"
   transform="translate(0,-93.483003)">
</g>
<g
   id="g33"
   transform="translate(0,-93.483003)">
</g>
<g
   id="g35"
   transform="translate(0,-93.483003)">
</g>
<g
   id="g37"
   transform="translate(0,-93.483003)">
</g>
<g
   id="g39"
   transform="translate(0,-93.483003)">
</g>
<g
   id="g41"
   transform="translate(0,-93.483003)">
</g>
</svg>