<svg xmlns="http://www.w3.org/2000/svg" width="1920" height="600"><path d="M-220,-204L2,-226L93,-236Z" fill="#ececec" stroke="#ececec" stroke-width="1.51"/><path d="M13,838L-203,877L703,851Z" fill="#c5c5c5" stroke="#c5c5c5" stroke-width="1.51"/><path d="M335,-215L575,-211L1058,-255Z" fill="#e3e3e3" stroke="#e3e3e3" stroke-width="1.51"/><path d="M93,-236L335,-215L1058,-255Z" fill="#e5e5e5" stroke="#e5e5e5" stroke-width="1.51"/><path d="M93,-236L1058,-255L1239,-274Z" fill="#e1e1e1" stroke="#e1e1e1" stroke-width="1.51"/><path d="M93,-236L1239,-274L1299,-277Z" fill="#e0e0e0" stroke="#e0e0e0" stroke-width="1.51"/><path d="M1235,833L901,846L1364,843Z" fill="#b6b6b6" stroke="#b6b6b6" stroke-width="1.51"/><path d="M703,851L-203,877L1540,870Z" fill="#bdbdbd" stroke="#bdbdbd" stroke-width="1.51"/><path d="M1364,843L901,846L1540,870Z" fill="#b4b4b4" stroke="#b4b4b4" stroke-width="1.51"/><path d="M901,846L703,851L1540,870Z" fill="#b8b8b8" stroke="#b8b8b8" stroke-width="1.51"/><path d="M1685,-275L1900,-223L2048,-260Z" fill="#cdcdcd" stroke="#cdcdcd" stroke-width="1.51"/><path d="M2030,512L1945,626L2092,689Z" fill="#afafaf" stroke="#afafaf" stroke-width="1.51"/><path d="M2054,412L2030,512L2092,689Z" fill="#b1b1b1" stroke="#b1b1b1" stroke-width="1.51"/><path d="M2070,224L2054,412L2092,689Z" fill="#b4b4b4" stroke="#b4b4b4" stroke-width="1.51"/><path d="M2048,-260L1949,-56L2102,-40Z" fill="#c7c7c7" stroke="#c7c7c7" stroke-width="1.51"/><path d="M2073,88L2070,224L2102,-40Z" fill="#c0c0c0" stroke="#c0c0c0" stroke-width="1.51"/><path d="M1962,783L1767,876L2121,834Z" fill="#a8a8a8" stroke="#a8a8a8" stroke-width="1.51"/><path d="M2092,689L1962,783L2121,834Z" fill="#a9a9a9" stroke="#a9a9a9" stroke-width="1.51"/><path d="M2102,-40L2070,224L2121,834Z" fill="#b8b8b8" stroke="#b8b8b8" stroke-width="1.51"/><path d="M2070,224L2092,689L2121,834Z" fill="#afafaf" stroke="#afafaf" stroke-width="1.51"/><path d="M1900,-223L1949,-56L2048,-260Z" fill="#c9c9c9" stroke="#c9c9c9" stroke-width="1.51"/><path d="M1938,387L2054,412L2070,224Z" fill="#b9b9b9" stroke="#b9b9b9" stroke-width="1.51"/><path d="M1975,170L2070,224L2073,88Z" fill="#bebebe" stroke="#bebebe" stroke-width="1.51"/><path d="M1949,-56L2073,88L2102,-40Z" fill="#c3c3c3" stroke="#c3c3c3" stroke-width="1.51"/><path d="M1945,626L1962,783L2092,689Z" fill="#acacac" stroke="#acacac" stroke-width="1.51"/><path d="M1975,170L1938,387L2070,224Z" fill="#bcbcbc" stroke="#bcbcbc" stroke-width="1.51"/><path d="M1884,29L1975,170L2073,88Z" fill="#c2c2c2" stroke="#c2c2c2" stroke-width="1.51"/><path d="M1949,-56L1884,29L2073,88Z" fill="#c4c4c4" stroke="#c4c4c4" stroke-width="1.51"/><path d="M1962,483L2030,512L2054,412Z" fill="#b4b4b4" stroke="#b4b4b4" stroke-width="1.51"/><path d="M1938,387L1962,483L2054,412Z" fill="#b6b6b6" stroke="#b6b6b6" stroke-width="1.51"/><path d="M1962,483L1945,626L2030,512Z" fill="#b3b3b3" stroke="#b3b3b3" stroke-width="1.51"/><path d="M1795,174L1761,392L1938,387Z" fill="#bebebe" stroke="#bebebe" stroke-width="1.51"/><path d="M1945,626L1748,660L1962,783Z" fill="#afafaf" stroke="#afafaf" stroke-width="1.51"/><path d="M1759,487L1945,626L1962,483Z" fill="#b4b4b4" stroke="#b4b4b4" stroke-width="1.51"/><path d="M1884,29L1791,116L1975,170Z" fill="#c3c3c3" stroke="#c3c3c3" stroke-width="1.51"/><path d="M1791,116L1795,174L1975,170Z" fill="#c2c2c2" stroke="#c2c2c2" stroke-width="1.51"/><path d="M1795,174L1938,387L1975,170Z" fill="#bebebe" stroke="#bebebe" stroke-width="1.51"/><path d="M1900,-223L1837,-25L1949,-56Z" fill="#c9c9c9" stroke="#c9c9c9" stroke-width="1.51"/><path d="M1748,660L1767,876L1962,783Z" fill="#acacac" stroke="#acacac" stroke-width="1.51"/><path d="M1938,387L1759,487L1962,483Z" fill="#b7b7b7" stroke="#b7b7b7" stroke-width="1.51"/><path d="M1761,392L1759,487L1938,387Z" fill="#bababa" stroke="#bababa" stroke-width="1.51"/><path d="M1759,487L1748,660L1945,626Z" fill="#b4b4b4" stroke="#b4b4b4" stroke-width="1.51"/><path d="M1837,-25L1884,29L1949,-56Z" fill="#c6c6c6" stroke="#c6c6c6" stroke-width="1.51"/><path d="M1730,-190L1837,-25L1900,-223Z" fill="#cbcbcb" stroke="#cbcbcb" stroke-width="1.51"/><path d="M397,808L13,838L703,851Z" fill="#c3c3c3" stroke="#c3c3c3" stroke-width="1.51"/><path d="M1685,-275L1730,-190L1900,-223Z" fill="#cfcfcf" stroke="#cfcfcf" stroke-width="1.51"/><path d="M1837,-25L1791,116L1884,29Z" fill="#c6c6c6" stroke="#c6c6c6" stroke-width="1.51"/><path d="M1299,-277L1436,-227L1685,-275Z" fill="#d6d6d6" stroke="#d6d6d6" stroke-width="1.51"/><path d="M1748,660L1651,819L1767,876Z" fill="#aeaeae" stroke="#aeaeae" stroke-width="1.51"/><path d="M1655,261L1761,392L1795,174Z" fill="#c1c1c1" stroke="#c1c1c1" stroke-width="1.51"/><path d="M1730,-190L1609,-52L1837,-25Z" fill="#cccccc" stroke="#cccccc" stroke-width="1.51"/><path d="M1609,-52L1679,86L1837,-25Z" fill="#c9c9c9" stroke="#c9c9c9" stroke-width="1.51"/><path d="M1679,86L1791,116L1837,-25Z" fill="#c6c6c6" stroke="#c6c6c6" stroke-width="1.51"/><path d="M1630,632L1748,660L1759,487Z" fill="#b6b6b6" stroke="#b6b6b6" stroke-width="1.51"/><path d="M1651,819L1540,870L1767,876Z" fill="#adadad" stroke="#adadad" stroke-width="1.51"/><path d="M1791,116L1679,86L1795,174Z" fill="#c5c5c5" stroke="#c5c5c5" stroke-width="1.51"/><path d="M1679,86L1655,261L1795,174Z" fill="#c4c4c4" stroke="#c4c4c4" stroke-width="1.51"/><path d="M1630,632L1651,819L1748,660Z" fill="#b2b2b2" stroke="#b2b2b2" stroke-width="1.51"/><path d="M1586,553L1630,632L1759,487Z" fill="#b8b8b8" stroke="#b8b8b8" stroke-width="1.51"/><path d="M1621,400L1759,487L1761,392Z" fill="#bbbbbb" stroke="#bbbbbb" stroke-width="1.51"/><path d="M1655,261L1621,400L1761,392Z" fill="#bfbfbf" stroke="#bfbfbf" stroke-width="1.51"/><path d="M1621,400L1586,553L1759,487Z" fill="#bbbbbb" stroke="#bbbbbb" stroke-width="1.51"/><path d="M1685,-275L1609,-52L1730,-190Z" fill="#cfcfcf" stroke="#cfcfcf" stroke-width="1.51"/><path d="M1630,632L1477,704L1651,819Z" fill="#b3b3b3" stroke="#b3b3b3" stroke-width="1.51"/><path d="M1428,250L1655,261L1679,86Z" fill="#c6c6c6" stroke="#c6c6c6" stroke-width="1.51"/><path d="M1431,27L1428,250L1679,86Z" fill="#c9c9c9" stroke="#c9c9c9" stroke-width="1.51"/><path d="M1484,-121L1609,-52L1685,-275Z" fill="#d0d0d0" stroke="#d0d0d0" stroke-width="1.51"/><path d="M1436,-227L1484,-121L1685,-275Z" fill="#d3d3d3" stroke="#d3d3d3" stroke-width="1.51"/><path d="M1609,-52L1431,27L1679,86Z" fill="#cbcbcb" stroke="#cbcbcb" stroke-width="1.51"/><path d="M1519,538L1586,553L1621,400Z" fill="#bcbcbc" stroke="#bcbcbc" stroke-width="1.51"/><path d="M1477,704L1540,870L1651,819Z" fill="#b1b1b1" stroke="#b1b1b1" stroke-width="1.51"/><path d="M1438,372L1621,400L1655,261Z" fill="#c2c2c2" stroke="#c2c2c2" stroke-width="1.51"/><path d="M1428,250L1438,372L1655,261Z" fill="#c4c4c4" stroke="#c4c4c4" stroke-width="1.51"/><path d="M1586,553L1477,704L1630,632Z" fill="#b7b7b7" stroke="#b7b7b7" stroke-width="1.51"/><path d="M1519,538L1477,704L1586,553Z" fill="#b8b8b8" stroke="#b8b8b8" stroke-width="1.51"/><path d="M1438,372L1519,538L1621,400Z" fill="#bfbfbf" stroke="#bfbfbf" stroke-width="1.51"/><path d="M1484,-121L1431,27L1609,-52Z" fill="#cecece" stroke="#cecece" stroke-width="1.51"/><path d="M1385,227L1428,250L1431,27Z" fill="#cacaca" stroke="#cacaca" stroke-width="1.51"/><path d="M1345,555L1477,704L1519,538Z" fill="#bababa" stroke="#bababa" stroke-width="1.51"/><path d="M1477,704L1364,843L1540,870Z" fill="#b2b2b2" stroke="#b2b2b2" stroke-width="1.51"/><path d="M1340,411L1345,555L1438,372Z" fill="#c1c1c1" stroke="#c1c1c1" stroke-width="1.51"/><path d="M1382,705L1364,843L1477,704Z" fill="#b5b5b5" stroke="#b5b5b5" stroke-width="1.51"/><path d="M1345,555L1382,705L1477,704Z" fill="#b9b9b9" stroke="#b9b9b9" stroke-width="1.51"/><path d="M1438,372L1345,555L1519,538Z" fill="#bfbfbf" stroke="#bfbfbf" stroke-width="1.51"/><path d="M1436,-227L1314,-39L1484,-121Z" fill="#d3d3d3" stroke="#d3d3d3" stroke-width="1.51"/><path d="M1314,-39L1431,27L1484,-121Z" fill="#d0d0d0" stroke="#d0d0d0" stroke-width="1.51"/><path d="M1283,27L1385,227L1431,27Z" fill="#cdcdcd" stroke="#cdcdcd" stroke-width="1.51"/><path d="M1299,-277L1314,-39L1436,-227Z" fill="#d5d5d5" stroke="#d5d5d5" stroke-width="1.51"/><path d="M1428,250L1385,227L1438,372Z" fill="#c7c7c7" stroke="#c7c7c7" stroke-width="1.51"/><path d="M1385,227L1340,411L1438,372Z" fill="#c5c5c5" stroke="#c5c5c5" stroke-width="1.51"/><path d="M1314,-39L1283,27L1431,27Z" fill="#d0d0d0" stroke="#d0d0d0" stroke-width="1.51"/><path d="M1202,81L1214,215L1283,27Z" fill="#cfcfcf" stroke="#cfcfcf" stroke-width="1.51"/><path d="M1299,-277L1239,-274L1314,-39Z" fill="#d7d7d7" stroke="#d7d7d7" stroke-width="1.51"/><path d="M1345,555L1160,634L1382,705Z" fill="#bcbcbc" stroke="#bcbcbc" stroke-width="1.51"/><path d="M1235,833L1364,843L1382,705Z" fill="#b5b5b5" stroke="#b5b5b5" stroke-width="1.51"/><path d="M1283,27L1214,215L1385,227Z" fill="#cccccc" stroke="#cccccc" stroke-width="1.51"/><path d="M1195,322L1340,411L1385,227Z" fill="#c7c7c7" stroke="#c7c7c7" stroke-width="1.51"/><path d="M1214,215L1195,322L1385,227Z" fill="#cacaca" stroke="#cacaca" stroke-width="1.51"/><path d="M1160,634L1235,833L1382,705Z" fill="#b9b9b9" stroke="#b9b9b9" stroke-width="1.51"/><path d="M1340,411L1175,472L1345,555Z" fill="#c2c2c2" stroke="#c2c2c2" stroke-width="1.51"/><path d="M1239,-274L1130,-58L1314,-39Z" fill="#d6d6d6" stroke="#d6d6d6" stroke-width="1.51"/><path d="M1175,472L1160,634L1345,555Z" fill="#c0c0c0" stroke="#c0c0c0" stroke-width="1.51"/><path d="M985,796L901,846L1235,833Z" fill="#bababa" stroke="#bababa" stroke-width="1.51"/><path d="M1195,322L1175,472L1340,411Z" fill="#c5c5c5" stroke="#c5c5c5" stroke-width="1.51"/><path d="M1130,-58L1283,27L1314,-39Z" fill="#d3d3d3" stroke="#d3d3d3" stroke-width="1.51"/><path d="M575,-211L718,-175L1058,-255Z" fill="#e0e0e0" stroke="#e0e0e0" stroke-width="1.51"/><path d="M1130,-58L1202,81L1283,27Z" fill="#d2d2d2" stroke="#d2d2d2" stroke-width="1.51"/><path d="M1202,81L1081,208L1214,215Z" fill="#cfcfcf" stroke="#cfcfcf" stroke-width="1.51"/><path d="M1160,634L985,796L1235,833Z" fill="#bbbbbb" stroke="#bbbbbb" stroke-width="1.51"/><path d="M1058,-255L1130,-58L1239,-274Z" fill="#dadada" stroke="#dadada" stroke-width="1.51"/><path d="M1060,565L1160,634L1175,472Z" fill="#c1c1c1" stroke="#c1c1c1" stroke-width="1.51"/><path d="M1052,397L1175,472L1195,322Z" fill="#c8c8c8" stroke="#c8c8c8" stroke-width="1.51"/><path d="M1081,208L1195,322L1214,215Z" fill="#cccccc" stroke="#cccccc" stroke-width="1.51"/><path d="M1130,-58L985,35L1202,81Z" fill="#d4d4d4" stroke="#d4d4d4" stroke-width="1.51"/><path d="M985,35L1081,208L1202,81Z" fill="#d2d2d2" stroke="#d2d2d2" stroke-width="1.51"/><path d="M1081,208L1052,397L1195,322Z" fill="#cbcbcb" stroke="#cbcbcb" stroke-width="1.51"/><path d="M987,630L985,796L1160,634Z" fill="#bfbfbf" stroke="#bfbfbf" stroke-width="1.51"/><path d="M1052,397L1060,565L1175,472Z" fill="#c5c5c5" stroke="#c5c5c5" stroke-width="1.51"/><path d="M1058,-255L981,-57L1130,-58Z" fill="#d9d9d9" stroke="#d9d9d9" stroke-width="1.51"/><path d="M1060,565L987,630L1160,634Z" fill="#c1c1c1" stroke="#c1c1c1" stroke-width="1.51"/><path d="M940,719L985,796L987,630Z" fill="#bfbfbf" stroke="#bfbfbf" stroke-width="1.51"/><path d="M718,-175L915,-170L1058,-255Z" fill="#dedede" stroke="#dedede" stroke-width="1.51"/><path d="M981,-57L985,35L1130,-58Z" fill="#d7d7d7" stroke="#d7d7d7" stroke-width="1.51"/><path d="M915,-170L981,-57L1058,-255Z" fill="#dcdcdc" stroke="#dcdcdc" stroke-width="1.51"/><path d="M1052,397L920,546L1060,565Z" fill="#c6c6c6" stroke="#c6c6c6" stroke-width="1.51"/><path d="M985,35L921,114L1081,208Z" fill="#d3d3d3" stroke="#d3d3d3" stroke-width="1.51"/><path d="M899,332L1052,397L1081,208Z" fill="#cdcdcd" stroke="#cdcdcd" stroke-width="1.51"/><path d="M921,114L899,332L1081,208Z" fill="#d1d1d1" stroke="#d1d1d1" stroke-width="1.51"/><path d="M833,230L899,332L921,114Z" fill="#d2d2d2" stroke="#d2d2d2" stroke-width="1.51"/><path d="M915,-170L934,-77L981,-57Z" fill="#dadada" stroke="#dadada" stroke-width="1.51"/><path d="M920,546L987,630L1060,565Z" fill="#c4c4c4" stroke="#c4c4c4" stroke-width="1.51"/><path d="M899,332L920,546L1052,397Z" fill="#cacaca" stroke="#cacaca" stroke-width="1.51"/><path d="M981,-57L934,-77L985,35Z" fill="#d8d8d8" stroke="#d8d8d8" stroke-width="1.51"/><path d="M920,546L940,719L987,630Z" fill="#c2c2c2" stroke="#c2c2c2" stroke-width="1.51"/><path d="M940,719L901,846L985,796Z" fill="#bdbdbd" stroke="#bdbdbd" stroke-width="1.51"/><path d="M934,-77L921,114L985,35Z" fill="#d7d7d7" stroke="#d7d7d7" stroke-width="1.51"/><path d="M899,332L780,527L920,546Z" fill="#cacaca" stroke="#cacaca" stroke-width="1.51"/><path d="M712,61L921,114L934,-77Z" fill="#d8d8d8" stroke="#d8d8d8" stroke-width="1.51"/><path d="M689,701L901,846L940,719Z" fill="#bfbfbf" stroke="#bfbfbf" stroke-width="1.51"/><path d="M920,546L780,527L940,719Z" fill="#c4c4c4" stroke="#c4c4c4" stroke-width="1.51"/><path d="M780,527L689,701L940,719Z" fill="#c4c4c4" stroke="#c4c4c4" stroke-width="1.51"/><path d="M915,-170L718,-175L934,-77Z" fill="#dddddd" stroke="#dddddd" stroke-width="1.51"/><path d="M718,-175L689,-121L934,-77Z" fill="#dedede" stroke="#dedede" stroke-width="1.51"/><path d="M689,-121L712,61L934,-77Z" fill="#dbdbdb" stroke="#dbdbdb" stroke-width="1.51"/><path d="M680,385L780,527L899,332Z" fill="#cdcdcd" stroke="#cdcdcd" stroke-width="1.51"/><path d="M689,701L703,851L901,846Z" fill="#bfbfbf" stroke="#bfbfbf" stroke-width="1.51"/><path d="M712,61L833,230L921,114Z" fill="#d6d6d6" stroke="#d6d6d6" stroke-width="1.51"/><path d="M712,61L745,222L833,230Z" fill="#d5d5d5" stroke="#d5d5d5" stroke-width="1.51"/><path d="M833,230L680,385L899,332Z" fill="#d0d0d0" stroke="#d0d0d0" stroke-width="1.51"/><path d="M745,222L680,385L833,230Z" fill="#d2d2d2" stroke="#d2d2d2" stroke-width="1.51"/><path d="M606,796L397,808L703,851Z" fill="#c1c1c1" stroke="#c1c1c1" stroke-width="1.51"/><path d="M689,-121L628,-57L712,61Z" fill="#dddddd" stroke="#dddddd" stroke-width="1.51"/><path d="M712,61L613,109L745,222Z" fill="#d8d8d8" stroke="#d8d8d8" stroke-width="1.51"/><path d="M597,556L689,701L780,527Z" fill="#c8c8c8" stroke="#c8c8c8" stroke-width="1.51"/><path d="M680,385L597,556L780,527Z" fill="#cccccc" stroke="#cccccc" stroke-width="1.51"/><path d="M689,701L606,796L703,851Z" fill="#c1c1c1" stroke="#c1c1c1" stroke-width="1.51"/><path d="M598,327L680,385L745,222Z" fill="#d2d2d2" stroke="#d2d2d2" stroke-width="1.51"/><path d="M599,208L598,327L745,222Z" fill="#d5d5d5" stroke="#d5d5d5" stroke-width="1.51"/><path d="M613,109L599,208L745,222Z" fill="#d7d7d7" stroke="#d7d7d7" stroke-width="1.51"/><path d="M628,-57L613,109L712,61Z" fill="#dbdbdb" stroke="#dbdbdb" stroke-width="1.51"/><path d="M575,-211L689,-121L718,-175Z" fill="#e1e1e1" stroke="#e1e1e1" stroke-width="1.51"/><path d="M286,782L13,838L397,808Z" fill="#c6c6c6" stroke="#c6c6c6" stroke-width="1.51"/><path d="M598,327L597,556L680,385Z" fill="#cfcfcf" stroke="#cfcfcf" stroke-width="1.51"/><path d="M535,724L606,796L689,701Z" fill="#c3c3c3" stroke="#c3c3c3" stroke-width="1.51"/><path d="M597,556L535,724L689,701Z" fill="#c6c6c6" stroke="#c6c6c6" stroke-width="1.51"/><path d="M575,-211L628,-57L689,-121Z" fill="#e0e0e0" stroke="#e0e0e0" stroke-width="1.51"/><path d="M335,-215L396,-184L575,-211Z" fill="#e5e5e5" stroke="#e5e5e5" stroke-width="1.51"/><path d="M467,698L535,724L597,556Z" fill="#c7c7c7" stroke="#c7c7c7" stroke-width="1.51"/><path d="M411,422L597,556L598,327Z" fill="#d0d0d0" stroke="#d0d0d0" stroke-width="1.51"/><path d="M459,-25L447,60L613,109Z" fill="#dddddd" stroke="#dddddd" stroke-width="1.51"/><path d="M459,-25L613,109L628,-57Z" fill="#dddddd" stroke="#dddddd" stroke-width="1.51"/><path d="M575,-211L459,-25L628,-57Z" fill="#e0e0e0" stroke="#e0e0e0" stroke-width="1.51"/><path d="M411,422L388,482L597,556Z" fill="#cfcfcf" stroke="#cfcfcf" stroke-width="1.51"/><path d="M459,184L598,327L599,208Z" fill="#d6d6d6" stroke="#d6d6d6" stroke-width="1.51"/><path d="M459,184L599,208L613,109Z" fill="#d9d9d9" stroke="#d9d9d9" stroke-width="1.51"/><path d="M447,60L459,184L613,109Z" fill="#dbdbdb" stroke="#dbdbdb" stroke-width="1.51"/><path d="M396,-184L459,-25L575,-211Z" fill="#e3e3e3" stroke="#e3e3e3" stroke-width="1.51"/><path d="M535,724L397,808L606,796Z" fill="#c3c3c3" stroke="#c3c3c3" stroke-width="1.51"/><path d="M459,184L411,422L598,327Z" fill="#d5d5d5" stroke="#d5d5d5" stroke-width="1.51"/><path d="M388,482L467,698L597,556Z" fill="#cbcbcb" stroke="#cbcbcb" stroke-width="1.51"/><path d="M124,788L13,838L286,782Z" fill="#c8c8c8" stroke="#c8c8c8" stroke-width="1.51"/><path d="M467,698L397,808L535,724Z" fill="#c5c5c5" stroke="#c5c5c5" stroke-width="1.51"/><path d="M447,60L321,188L459,184Z" fill="#dbdbdb" stroke="#dbdbdb" stroke-width="1.51"/><path d="M321,188L411,422L459,184Z" fill="#d8d8d8" stroke="#d8d8d8" stroke-width="1.51"/><path d="M396,-184L233,-68L459,-25Z" fill="#e3e3e3" stroke="#e3e3e3" stroke-width="1.51"/><path d="M388,482L286,515L467,698Z" fill="#cdcdcd" stroke="#cdcdcd" stroke-width="1.51"/><path d="M286,515L264,706L467,698Z" fill="#cbcbcb" stroke="#cbcbcb" stroke-width="1.51"/><path d="M264,706L397,808L467,698Z" fill="#c7c7c7" stroke="#c7c7c7" stroke-width="1.51"/><path d="M321,188L238,404L411,422Z" fill="#d6d6d6" stroke="#d6d6d6" stroke-width="1.51"/><path d="M282,103L321,188L447,60Z" fill="#dddddd" stroke="#dddddd" stroke-width="1.51"/><path d="M282,103L447,60L459,-25Z" fill="#dedede" stroke="#dedede" stroke-width="1.51"/><path d="M233,-68L282,103L459,-25Z" fill="#e0e0e0" stroke="#e0e0e0" stroke-width="1.51"/><path d="M264,706L286,782L397,808Z" fill="#c7c7c7" stroke="#c7c7c7" stroke-width="1.51"/><path d="M335,-215L233,-68L396,-184Z" fill="#e5e5e5" stroke="#e5e5e5" stroke-width="1.51"/><path d="M238,404L388,482L411,422Z" fill="#d3d3d3" stroke="#d3d3d3" stroke-width="1.51"/><path d="M238,404L286,515L388,482Z" fill="#d2d2d2" stroke="#d2d2d2" stroke-width="1.51"/><path d="M151,546L264,706L286,515Z" fill="#cecece" stroke="#cecece" stroke-width="1.51"/><path d="M123,278L238,404L321,188Z" fill="#dadada" stroke="#dadada" stroke-width="1.51"/><path d="M93,-236L233,-68L335,-215Z" fill="#e7e7e7" stroke="#e7e7e7" stroke-width="1.51"/><path d="M151,546L189,705L264,706Z" fill="#cccccc" stroke="#cccccc" stroke-width="1.51"/><path d="M282,103L123,278L321,188Z" fill="#dcdcdc" stroke="#dcdcdc" stroke-width="1.51"/><path d="M93,-236L93,-125L233,-68Z" fill="#e8e8e8" stroke="#e8e8e8" stroke-width="1.51"/><path d="M233,-68L93,129L282,103Z" fill="#e1e1e1" stroke="#e1e1e1" stroke-width="1.51"/><path d="M93,129L123,278L282,103Z" fill="#dedede" stroke="#dedede" stroke-width="1.51"/><path d="M264,706L189,705L286,782Z" fill="#c9c9c9" stroke="#c9c9c9" stroke-width="1.51"/><path d="M189,705L124,788L286,782Z" fill="#c8c8c8" stroke="#c8c8c8" stroke-width="1.51"/><path d="M238,404L151,546L286,515Z" fill="#d2d2d2" stroke="#d2d2d2" stroke-width="1.51"/><path d="M123,278L124,379L238,404Z" fill="#d8d8d8" stroke="#d8d8d8" stroke-width="1.51"/><path d="M93,-125L93,129L233,-68Z" fill="#e4e4e4" stroke="#e4e4e4" stroke-width="1.51"/><path d="M124,379L151,546L238,404Z" fill="#d5d5d5" stroke="#d5d5d5" stroke-width="1.51"/><path d="M-22,-47L93,129L93,-125Z" fill="#e5e5e5" stroke="#e5e5e5" stroke-width="1.51"/><path d="M151,546L6,660L189,705Z" fill="#cecece" stroke="#cecece" stroke-width="1.51"/><path d="M6,660L124,788L189,705Z" fill="#cbcbcb" stroke="#cbcbcb" stroke-width="1.51"/><path d="M-22,-47L13,130L93,129Z" fill="#e3e3e3" stroke="#e3e3e3" stroke-width="1.51"/><path d="M93,129L36,270L123,278Z" fill="#dddddd" stroke="#dddddd" stroke-width="1.51"/><path d="M-54,553L6,660L151,546Z" fill="#d1d1d1" stroke="#d1d1d1" stroke-width="1.51"/><path d="M124,379L-21,428L151,546Z" fill="#d5d5d5" stroke="#d5d5d5" stroke-width="1.51"/><path d="M-21,428L-54,553L151,546Z" fill="#d4d4d4" stroke="#d4d4d4" stroke-width="1.51"/><path d="M13,130L36,270L93,129Z" fill="#e0e0e0" stroke="#e0e0e0" stroke-width="1.51"/><path d="M6,660L13,838L124,788Z" fill="#cbcbcb" stroke="#cbcbcb" stroke-width="1.51"/><path d="M123,278L36,270L124,379Z" fill="#dbdbdb" stroke="#dbdbdb" stroke-width="1.51"/><path d="M36,270L-21,428L124,379Z" fill="#dadada" stroke="#dadada" stroke-width="1.51"/><path d="M2,-226L-22,-47L93,-125Z" fill="#e9e9e9" stroke="#e9e9e9" stroke-width="1.51"/><path d="M2,-226L93,-125L93,-236Z" fill="#eaeaea" stroke="#eaeaea" stroke-width="1.51"/><path d="M6,660L-127,655L13,838Z" fill="#cdcdcd" stroke="#cdcdcd" stroke-width="1.51"/><path d="M-22,-47L-184,65L13,130Z" fill="#e5e5e5" stroke="#e5e5e5" stroke-width="1.51"/><path d="M-165,424L-21,428L36,270Z" fill="#dadada" stroke="#dadada" stroke-width="1.51"/><path d="M-175,172L-165,424L36,270Z" fill="#dfdfdf" stroke="#dfdfdf" stroke-width="1.51"/><path d="M13,130L-175,172L36,270Z" fill="#e0e0e0" stroke="#e0e0e0" stroke-width="1.51"/><path d="M-185,-96L-22,-47L2,-226Z" fill="#eaeaea" stroke="#eaeaea" stroke-width="1.51"/><path d="M-54,553L-127,655L6,660Z" fill="#d2d2d2" stroke="#d2d2d2" stroke-width="1.51"/><path d="M-127,655L-203,877L13,838Z" fill="#cbcbcb" stroke="#cbcbcb" stroke-width="1.51"/><path d="M-184,65L-175,172L13,130Z" fill="#e3e3e3" stroke="#e3e3e3" stroke-width="1.51"/><path d="M-220,-204L-185,-96L2,-226Z" fill="#ededed" stroke="#ededed" stroke-width="1.51"/><path d="M-185,-96L-184,65L-22,-47Z" fill="#e8e8e8" stroke="#e8e8e8" stroke-width="1.51"/><path d="M-165,424L-54,553L-21,428Z" fill="#d7d7d7" stroke="#d7d7d7" stroke-width="1.51"/><path d="M-193,546L-127,655L-54,553Z" fill="#d4d4d4" stroke="#d4d4d4" stroke-width="1.51"/><path d="M-165,424L-193,546L-54,553Z" fill="#d7d7d7" stroke="#d7d7d7" stroke-width="1.51"/><path d="M-193,546L-203,877L-127,655Z" fill="#d0d0d0" stroke="#d0d0d0" stroke-width="1.51"/><path d="M-175,172L-193,546L-165,424Z" fill="#dcdcdc" stroke="#dcdcdc" stroke-width="1.51"/><path d="M-184,65L-193,546L-175,172Z" fill="#e0e0e0" stroke="#e0e0e0" stroke-width="1.51"/><path d="M-185,-96L-220,-204L-184,65Z" fill="#ebebeb" stroke="#ebebeb" stroke-width="1.51"/><path d="M-220,-204L-193,546L-184,65Z" fill="#e4e4e4" stroke="#e4e4e4" stroke-width="1.51"/><path d="M-220,-204L-203,877L-193,546Z" fill="#dcdcdc" stroke="#dcdcdc" stroke-width="1.51"/></svg>