<svg xmlns="http://www.w3.org/2000/svg" width="1920" height="600"><path d="M-47,-178L374,-159L537,-174Z" fill="#d2d2d2" stroke="#d2d2d2" stroke-width="1.51"/><path d="M-132,-188L-47,-178L537,-174Z" fill="#d7d7d7" stroke="#d7d7d7" stroke-width="1.51"/><path d="M377,774L-9,781L839,782Z" fill="#959595" stroke="#959595" stroke-width="1.51"/><path d="M-132,-188L537,-174L1226,-175Z" fill="#cccccc" stroke="#cccccc" stroke-width="1.51"/><path d="M537,-174L809,-167L1226,-175Z" fill="#c3c3c3" stroke="#c3c3c3" stroke-width="1.51"/><path d="M1078,770L839,782L1363,769Z" fill="#848484" stroke="#848484" stroke-width="1.51"/><path d="M1510,737L1363,769L1588,735Z" fill="#7c7c7c" stroke="#7c7c7c" stroke-width="1.51"/><path d="M1588,735L1363,769L1682,736Z" fill="#7a7a7a" stroke="#7a7a7a" stroke-width="1.51"/><path d="M1520,-147L1619,-142L1856,-156Z" fill="#acacac" stroke="#acacac" stroke-width="1.51"/><path d="M1226,-175L1520,-147L1856,-156Z" fill="#b0b0b0" stroke="#b0b0b0" stroke-width="1.51"/><path d="M1363,769L839,782L1955,772Z" fill="#7d7d7d" stroke="#7d7d7d" stroke-width="1.51"/><path d="M1840,731L1682,736L1955,772Z" fill="#737373" stroke="#737373" stroke-width="1.51"/><path d="M1682,736L1363,769L1955,772Z" fill="#777777" stroke="#777777" stroke-width="1.51"/><path d="M1856,-156L1912,-116L2074,-136Z" fill="#a4a4a4" stroke="#a4a4a4" stroke-width="1.51"/><path d="M2024,663L2028,719L2087,509Z" fill="#757575" stroke="#757575" stroke-width="1.51"/><path d="M1964,404L2087,509L2095,403Z" fill="#808080" stroke="#808080" stroke-width="1.51"/><path d="M2014,114L1924,235L2108,178Z" fill="#909090" stroke="#909090" stroke-width="1.51"/><path d="M1924,235L2012,316L2108,178Z" fill="#8c8c8c" stroke="#8c8c8c" stroke-width="1.51"/><path d="M2012,316L2095,403L2108,178Z" fill="#878787" stroke="#878787" stroke-width="1.51"/><path d="M2074,-136L1940,17L2108,7Z" fill="#9c9c9c" stroke="#9c9c9c" stroke-width="1.51"/><path d="M1940,17L1969,43L2108,7Z" fill="#999999" stroke="#999999" stroke-width="1.51"/><path d="M1969,43L2014,114L2108,7Z" fill="#979797" stroke="#979797" stroke-width="1.51"/><path d="M2014,114L2108,178L2108,7Z" fill="#939393" stroke="#939393" stroke-width="1.51"/><path d="M1912,-116L1940,17L2074,-136Z" fill="#a0a0a0" stroke="#a0a0a0" stroke-width="1.51"/><path d="M1944,478L2024,663L2087,509Z" fill="#7a7a7a" stroke="#7a7a7a" stroke-width="1.51"/><path d="M1964,404L1944,478L2087,509Z" fill="#808080" stroke="#808080" stroke-width="1.51"/><path d="M2012,316L1964,404L2095,403Z" fill="#848484" stroke="#848484" stroke-width="1.51"/><path d="M1860,622L1902,671L1944,478Z" fill="#7a7a7a" stroke="#7a7a7a" stroke-width="1.51"/><path d="M1849,561L1860,622L1944,478Z" fill="#7d7d7d" stroke="#7d7d7d" stroke-width="1.51"/><path d="M1944,478L1902,671L2024,663Z" fill="#797979" stroke="#797979" stroke-width="1.51"/><path d="M2024,663L1902,671L2028,719Z" fill="#737373" stroke="#737373" stroke-width="1.51"/><path d="M1902,671L1955,772L2028,719Z" fill="#717171" stroke="#717171" stroke-width="1.51"/><path d="M1911,330L1964,404L2012,316Z" fill="#878787" stroke="#878787" stroke-width="1.51"/><path d="M1924,235L1911,330L2012,316Z" fill="#8b8b8b" stroke="#8b8b8b" stroke-width="1.51"/><path d="M1969,43L1872,88L2014,114Z" fill="#979797" stroke="#979797" stroke-width="1.51"/><path d="M1872,88L1924,235L2014,114Z" fill="#949494" stroke="#949494" stroke-width="1.51"/><path d="M1619,-142L1764,-124L1856,-156Z" fill="#aaaaaa" stroke="#aaaaaa" stroke-width="1.51"/><path d="M1940,17L1872,88L1969,43Z" fill="#9a9a9a" stroke="#9a9a9a" stroke-width="1.51"/><path d="M1874,296L1911,330L1924,235Z" fill="#8c8c8c" stroke="#8c8c8c" stroke-width="1.51"/><path d="M1902,671L1840,731L1955,772Z" fill="#737373" stroke="#737373" stroke-width="1.51"/><path d="M1816,425L1944,478L1964,404Z" fill="#838383" stroke="#838383" stroke-width="1.51"/><path d="M1911,330L1816,425L1964,404Z" fill="#868686" stroke="#868686" stroke-width="1.51"/><path d="M1912,-116L1794,-30L1940,17Z" fill="#a0a0a0" stroke="#a0a0a0" stroke-width="1.51"/><path d="M1872,88L1803,236L1924,235Z" fill="#939393" stroke="#939393" stroke-width="1.51"/><path d="M1816,425L1849,561L1944,478Z" fill="#818181" stroke="#818181" stroke-width="1.51"/><path d="M1794,-30L1872,88L1940,17Z" fill="#9d9d9d" stroke="#9d9d9d" stroke-width="1.51"/><path d="M1803,236L1874,296L1924,235Z" fill="#8f8f8f" stroke="#8f8f8f" stroke-width="1.51"/><path d="M1756,151L1803,236L1872,88Z" fill="#969696" stroke="#969696" stroke-width="1.51"/><path d="M1874,296L1816,425L1911,330Z" fill="#898989" stroke="#898989" stroke-width="1.51"/><path d="M1856,-156L1794,-30L1912,-116Z" fill="#a5a5a5" stroke="#a5a5a5" stroke-width="1.51"/><path d="M1860,622L1840,731L1902,671Z" fill="#777777" stroke="#777777" stroke-width="1.51"/><path d="M1816,425L1764,565L1849,561Z" fill="#818181" stroke="#818181" stroke-width="1.51"/><path d="M1764,-124L1794,-30L1856,-156Z" fill="#a6a6a6" stroke="#a6a6a6" stroke-width="1.51"/><path d="M1794,-30L1744,58L1872,88Z" fill="#9e9e9e" stroke="#9e9e9e" stroke-width="1.51"/><path d="M1701,345L1816,425L1874,296Z" fill="#8b8b8b" stroke="#8b8b8b" stroke-width="1.51"/><path d="M1803,236L1701,345L1874,296Z" fill="#8f8f8f" stroke="#8f8f8f" stroke-width="1.51"/><path d="M1744,58L1756,151L1872,88Z" fill="#9a9a9a" stroke="#9a9a9a" stroke-width="1.51"/><path d="M1764,565L1682,736L1840,731Z" fill="#797979" stroke="#797979" stroke-width="1.51"/><path d="M1849,561L1764,565L1860,622Z" fill="#7d7d7d" stroke="#7d7d7d" stroke-width="1.51"/><path d="M1764,565L1840,731L1860,622Z" fill="#7a7a7a" stroke="#7a7a7a" stroke-width="1.51"/><path d="M1687,584L1682,736L1764,565Z" fill="#7d7d7d" stroke="#7d7d7d" stroke-width="1.51"/><path d="M1690,395L1764,565L1816,425Z" fill="#858585" stroke="#858585" stroke-width="1.51"/><path d="M1701,345L1690,395L1816,425Z" fill="#8a8a8a" stroke="#8a8a8a" stroke-width="1.51"/><path d="M1661,301L1701,345L1803,236Z" fill="#909090" stroke="#909090" stroke-width="1.51"/><path d="M1756,151L1654,180L1803,236Z" fill="#969696" stroke="#969696" stroke-width="1.51"/><path d="M1654,180L1661,301L1803,236Z" fill="#949494" stroke="#949494" stroke-width="1.51"/><path d="M1690,395L1614,473L1764,565Z" fill="#868686" stroke="#868686" stroke-width="1.51"/><path d="M1614,473L1687,584L1764,565Z" fill="#838383" stroke="#838383" stroke-width="1.51"/><path d="M1764,-124L1681,-7L1794,-30Z" fill="#a5a5a5" stroke="#a5a5a5" stroke-width="1.51"/><path d="M1681,-7L1744,58L1794,-30Z" fill="#a1a1a1" stroke="#a1a1a1" stroke-width="1.51"/><path d="M1744,58L1651,112L1756,151Z" fill="#9b9b9b" stroke="#9b9b9b" stroke-width="1.51"/><path d="M1654,-28L1681,-7L1764,-124Z" fill="#a6a6a6" stroke="#a6a6a6" stroke-width="1.51"/><path d="M1619,-142L1654,-28L1764,-124Z" fill="#a9a9a9" stroke="#a9a9a9" stroke-width="1.51"/><path d="M1651,112L1654,180L1756,151Z" fill="#9a9a9a" stroke="#9a9a9a" stroke-width="1.51"/><path d="M1681,-7L1651,112L1744,58Z" fill="#a0a0a0" stroke="#a0a0a0" stroke-width="1.51"/><path d="M1571,596L1588,735L1682,736Z" fill="#7c7c7c" stroke="#7c7c7c" stroke-width="1.51"/><path d="M1571,596L1682,736L1687,584Z" fill="#7e7e7e" stroke="#7e7e7e" stroke-width="1.51"/><path d="M1664,389L1614,473L1690,395Z" fill="#8a8a8a" stroke="#8a8a8a" stroke-width="1.51"/><path d="M1664,389L1690,395L1701,345Z" fill="#8c8c8c" stroke="#8c8c8c" stroke-width="1.51"/><path d="M1661,301L1664,389L1701,345Z" fill="#8e8e8e" stroke="#8e8e8e" stroke-width="1.51"/><path d="M1654,-28L1651,112L1681,-7Z" fill="#a2a2a2" stroke="#a2a2a2" stroke-width="1.51"/><path d="M1614,473L1571,596L1687,584Z" fill="#848484" stroke="#848484" stroke-width="1.51"/><path d="M1465,39L1651,112L1654,-28Z" fill="#a3a3a3" stroke="#a3a3a3" stroke-width="1.51"/><path d="M1501,-42L1465,39L1654,-28Z" fill="#a7a7a7" stroke="#a7a7a7" stroke-width="1.51"/><path d="M1619,-142L1501,-42L1654,-28Z" fill="#aaaaaa" stroke="#aaaaaa" stroke-width="1.51"/><path d="M1654,180L1484,297L1661,301Z" fill="#959595" stroke="#959595" stroke-width="1.51"/><path d="M1484,297L1528,431L1661,301Z" fill="#919191" stroke="#919191" stroke-width="1.51"/><path d="M1661,301L1528,431L1664,389Z" fill="#8e8e8e" stroke="#8e8e8e" stroke-width="1.51"/><path d="M1528,431L1614,473L1664,389Z" fill="#8b8b8b" stroke="#8b8b8b" stroke-width="1.51"/><path d="M1480,146L1484,297L1654,180Z" fill="#9a9a9a" stroke="#9a9a9a" stroke-width="1.51"/><path d="M1465,39L1480,146L1651,112Z" fill="#a1a1a1" stroke="#a1a1a1" stroke-width="1.51"/><path d="M1651,112L1480,146L1654,180Z" fill="#9c9c9c" stroke="#9c9c9c" stroke-width="1.51"/><path d="M1571,596L1520,603L1588,735Z" fill="#808080" stroke="#808080" stroke-width="1.51"/><path d="M1520,603L1510,737L1588,735Z" fill="#7e7e7e" stroke="#7e7e7e" stroke-width="1.51"/><path d="M1484,478L1571,596L1614,473Z" fill="#878787" stroke="#878787" stroke-width="1.51"/><path d="M1520,-147L1501,-42L1619,-142Z" fill="#adadad" stroke="#adadad" stroke-width="1.51"/><path d="M1528,431L1484,478L1614,473Z" fill="#8b8b8b" stroke="#8b8b8b" stroke-width="1.51"/><path d="M1226,-175L1401,-102L1520,-147Z" fill="#b3b3b3" stroke="#b3b3b3" stroke-width="1.51"/><path d="M1484,478L1520,603L1571,596Z" fill="#868686" stroke="#868686" stroke-width="1.51"/><path d="M1484,297L1442,344L1528,431Z" fill="#939393" stroke="#939393" stroke-width="1.51"/><path d="M1251,738L1078,770L1363,769Z" fill="#828282" stroke="#828282" stroke-width="1.51"/><path d="M1226,-175L1336,-105L1401,-102Z" fill="#b4b4b4" stroke="#b4b4b4" stroke-width="1.51"/><path d="M1421,618L1510,737L1520,603Z" fill="#818181" stroke="#818181" stroke-width="1.51"/><path d="M1484,478L1421,618L1520,603Z" fill="#868686" stroke="#868686" stroke-width="1.51"/><path d="M1401,-102L1501,-42L1520,-147Z" fill="#aeaeae" stroke="#aeaeae" stroke-width="1.51"/><path d="M1442,344L1484,478L1528,431Z" fill="#8f8f8f" stroke="#8f8f8f" stroke-width="1.51"/><path d="M1368,545L1421,618L1484,478Z" fill="#898989" stroke="#898989" stroke-width="1.51"/><path d="M1480,146L1387,144L1484,297Z" fill="#9d9d9d" stroke="#9d9d9d" stroke-width="1.51"/><path d="M1442,344L1371,428L1484,478Z" fill="#909090" stroke="#909090" stroke-width="1.51"/><path d="M1421,618L1363,769L1510,737Z" fill="#7f7f7f" stroke="#7f7f7f" stroke-width="1.51"/><path d="M1139,746L1078,770L1251,738Z" fill="#848484" stroke="#848484" stroke-width="1.51"/><path d="M1465,39L1379,99L1480,146Z" fill="#a4a4a4" stroke="#a4a4a4" stroke-width="1.51"/><path d="M1360,-53L1465,39L1501,-42Z" fill="#aaaaaa" stroke="#aaaaaa" stroke-width="1.51"/><path d="M1401,-102L1360,-53L1501,-42Z" fill="#aeaeae" stroke="#aeaeae" stroke-width="1.51"/><path d="M1379,99L1387,144L1480,146Z" fill="#a2a2a2" stroke="#a2a2a2" stroke-width="1.51"/><path d="M1371,428L1368,545L1484,478Z" fill="#8d8d8d" stroke="#8d8d8d" stroke-width="1.51"/><path d="M1281,273L1442,344L1484,297Z" fill="#989898" stroke="#989898" stroke-width="1.51"/><path d="M1387,144L1281,273L1484,297Z" fill="#9c9c9c" stroke="#9c9c9c" stroke-width="1.51"/><path d="M1360,-53L1379,99L1465,39Z" fill="#a9a9a9" stroke="#a9a9a9" stroke-width="1.51"/><path d="M1333,145L1281,273L1387,144Z" fill="#a0a0a0" stroke="#a0a0a0" stroke-width="1.51"/><path d="M1281,273L1371,428L1442,344Z" fill="#969696" stroke="#969696" stroke-width="1.51"/><path d="M1262,609L1251,738L1363,769Z" fill="#838383" stroke="#838383" stroke-width="1.51"/><path d="M1360,-53L1284,-6L1379,99Z" fill="#ababab" stroke="#ababab" stroke-width="1.51"/><path d="M1368,545L1262,609L1421,618Z" fill="#888888" stroke="#888888" stroke-width="1.51"/><path d="M1262,609L1363,769L1421,618Z" fill="#848484" stroke="#848484" stroke-width="1.51"/><path d="M1281,273L1271,424L1371,428Z" fill="#969696" stroke="#969696" stroke-width="1.51"/><path d="M1336,-105L1360,-53L1401,-102Z" fill="#b0b0b0" stroke="#b0b0b0" stroke-width="1.51"/><path d="M1254,488L1368,545L1371,428Z" fill="#8f8f8f" stroke="#8f8f8f" stroke-width="1.51"/><path d="M1284,-6L1262,95L1379,99Z" fill="#a9a9a9" stroke="#a9a9a9" stroke-width="1.51"/><path d="M1379,99L1333,145L1387,144Z" fill="#a3a3a3" stroke="#a3a3a3" stroke-width="1.51"/><path d="M1271,424L1254,488L1371,428Z" fill="#929292" stroke="#929292" stroke-width="1.51"/><path d="M1262,95L1333,145L1379,99Z" fill="#a5a5a5" stroke="#a5a5a5" stroke-width="1.51"/><path d="M1254,488L1262,609L1368,545Z" fill="#8c8c8c" stroke="#8c8c8c" stroke-width="1.51"/><path d="M1336,-105L1284,-6L1360,-53Z" fill="#afafaf" stroke="#afafaf" stroke-width="1.51"/><path d="M809,-167L1087,-104L1226,-175Z" fill="#bdbdbd" stroke="#bdbdbd" stroke-width="1.51"/><path d="M1205,324L1271,424L1281,273Z" fill="#9a9a9a" stroke="#9a9a9a" stroke-width="1.51"/><path d="M1262,95L1281,273L1333,145Z" fill="#a3a3a3" stroke="#a3a3a3" stroke-width="1.51"/><path d="M1208,-9L1284,-6L1336,-105Z" fill="#b0b0b0" stroke="#b0b0b0" stroke-width="1.51"/><path d="M1226,-175L1208,-9L1336,-105Z" fill="#b3b3b3" stroke="#b3b3b3" stroke-width="1.51"/><path d="M1137,676L1251,738L1262,609Z" fill="#878787" stroke="#878787" stroke-width="1.51"/><path d="M1254,488L1156,543L1262,609Z" fill="#8e8e8e" stroke="#8e8e8e" stroke-width="1.51"/><path d="M1208,-9L1181,50L1262,95Z" fill="#acacac" stroke="#acacac" stroke-width="1.51"/><path d="M1262,95L1134,149L1281,273Z" fill="#a4a4a4" stroke="#a4a4a4" stroke-width="1.51"/><path d="M1134,149L1205,324L1281,273Z" fill="#a0a0a0" stroke="#a0a0a0" stroke-width="1.51"/><path d="M1208,-9L1262,95L1284,-6Z" fill="#adadad" stroke="#adadad" stroke-width="1.51"/><path d="M1134,149L1086,222L1205,324Z" fill="#a3a3a3" stroke="#a3a3a3" stroke-width="1.51"/><path d="M1157,452L1254,488L1271,424Z" fill="#939393" stroke="#939393" stroke-width="1.51"/><path d="M1205,324L1157,452L1271,424Z" fill="#979797" stroke="#979797" stroke-width="1.51"/><path d="M1087,-104L1208,-9L1226,-175Z" fill="#b6b6b6" stroke="#b6b6b6" stroke-width="1.51"/><path d="M1156,543L1137,676L1262,609Z" fill="#8b8b8b" stroke="#8b8b8b" stroke-width="1.51"/><path d="M1181,50L1134,149L1262,95Z" fill="#aaaaaa" stroke="#aaaaaa" stroke-width="1.51"/><path d="M1137,676L1139,746L1251,738Z" fill="#858585" stroke="#858585" stroke-width="1.51"/><path d="M1157,452L1156,543L1254,488Z" fill="#929292" stroke="#929292" stroke-width="1.51"/><path d="M568,736L377,774L839,782Z" fill="#919191" stroke="#919191" stroke-width="1.51"/><path d="M1086,222L1080,292L1205,324Z" fill="#a0a0a0" stroke="#a0a0a0" stroke-width="1.51"/><path d="M809,-167L912,-96L1087,-104Z" fill="#bebebe" stroke="#bebebe" stroke-width="1.51"/><path d="M1083,427L1157,452L1205,324Z" fill="#989898" stroke="#989898" stroke-width="1.51"/><path d="M1080,292L1083,427L1205,324Z" fill="#9c9c9c" stroke="#9c9c9c" stroke-width="1.51"/><path d="M1105,12L1181,50L1208,-9Z" fill="#afafaf" stroke="#afafaf" stroke-width="1.51"/><path d="M1087,-104L1105,12L1208,-9Z" fill="#b4b4b4" stroke="#b4b4b4" stroke-width="1.51"/><path d="M1030,598L1137,676L1156,543Z" fill="#8d8d8d" stroke="#8d8d8d" stroke-width="1.51"/><path d="M1068,535L1030,598L1156,543Z" fill="#919191" stroke="#919191" stroke-width="1.51"/><path d="M1110,55L1134,149L1181,50Z" fill="#acacac" stroke="#acacac" stroke-width="1.51"/><path d="M1105,12L1110,55L1181,50Z" fill="#afafaf" stroke="#afafaf" stroke-width="1.51"/><path d="M644,735L568,736L839,782Z" fill="#909090" stroke="#909090" stroke-width="1.51"/><path d="M912,-96L988,-75L1087,-104Z" fill="#bbbbbb" stroke="#bbbbbb" stroke-width="1.51"/><path d="M1068,535L1156,543L1157,452Z" fill="#939393" stroke="#939393" stroke-width="1.51"/><path d="M1083,427L1068,535L1157,452Z" fill="#959595" stroke="#959595" stroke-width="1.51"/><path d="M1137,676L1078,770L1139,746Z" fill="#868686" stroke="#868686" stroke-width="1.51"/><path d="M1030,598L1078,770L1137,676Z" fill="#8a8a8a" stroke="#8a8a8a" stroke-width="1.51"/><path d="M958,208L1086,222L1134,149Z" fill="#a7a7a7" stroke="#a7a7a7" stroke-width="1.51"/><path d="M964,46L958,208L1134,149Z" fill="#acacac" stroke="#acacac" stroke-width="1.51"/><path d="M1110,55L964,46L1134,149Z" fill="#aeaeae" stroke="#aeaeae" stroke-width="1.51"/><path d="M958,721L839,782L1078,770Z" fill="#898989" stroke="#898989" stroke-width="1.51"/><path d="M1030,598L958,721L1078,770Z" fill="#8a8a8a" stroke="#8a8a8a" stroke-width="1.51"/><path d="M1080,292L962,420L1083,427Z" fill="#9c9c9c" stroke="#9c9c9c" stroke-width="1.51"/><path d="M1087,-104L988,-75L1105,12Z" fill="#b6b6b6" stroke="#b6b6b6" stroke-width="1.51"/><path d="M1105,12L964,46L1110,55Z" fill="#b1b1b1" stroke="#b1b1b1" stroke-width="1.51"/><path d="M1000,602L958,721L1030,598Z" fill="#8e8e8e" stroke="#8e8e8e" stroke-width="1.51"/><path d="M988,-75L964,46L1105,12Z" fill="#b4b4b4" stroke="#b4b4b4" stroke-width="1.51"/><path d="M962,420L967,538L1068,535Z" fill="#969696" stroke="#969696" stroke-width="1.51"/><path d="M921,316L962,420L1080,292Z" fill="#a0a0a0" stroke="#a0a0a0" stroke-width="1.51"/><path d="M962,420L1068,535L1083,427Z" fill="#979797" stroke="#979797" stroke-width="1.51"/><path d="M958,208L1080,292L1086,222Z" fill="#a5a5a5" stroke="#a5a5a5" stroke-width="1.51"/><path d="M958,208L921,316L1080,292Z" fill="#a4a4a4" stroke="#a4a4a4" stroke-width="1.51"/><path d="M537,-174L708,-147L809,-167Z" fill="#c7c7c7" stroke="#c7c7c7" stroke-width="1.51"/><path d="M967,538L1030,598L1068,535Z" fill="#929292" stroke="#929292" stroke-width="1.51"/><path d="M967,538L1000,602L1030,598Z" fill="#919191" stroke="#919191" stroke-width="1.51"/><path d="M842,43L958,208L964,46Z" fill="#b0b0b0" stroke="#b0b0b0" stroke-width="1.51"/><path d="M962,420L890,449L967,538Z" fill="#9a9a9a" stroke="#9a9a9a" stroke-width="1.51"/><path d="M912,-96L964,46L988,-75Z" fill="#b9b9b9" stroke="#b9b9b9" stroke-width="1.51"/><path d="M967,538L851,658L1000,602Z" fill="#929292" stroke="#929292" stroke-width="1.51"/><path d="M851,658L958,721L1000,602Z" fill="#8f8f8f" stroke="#8f8f8f" stroke-width="1.51"/><path d="M912,-96L842,43L964,46Z" fill="#b7b7b7" stroke="#b7b7b7" stroke-width="1.51"/><path d="M819,-20L842,43L912,-96Z" fill="#bababa" stroke="#bababa" stroke-width="1.51"/><path d="M842,43L801,194L958,208Z" fill="#afafaf" stroke="#afafaf" stroke-width="1.51"/><path d="M865,272L921,316L958,208Z" fill="#a7a7a7" stroke="#a7a7a7" stroke-width="1.51"/><path d="M921,316L890,449L962,420Z" fill="#9e9e9e" stroke="#9e9e9e" stroke-width="1.51"/><path d="M890,449L834,483L967,538Z" fill="#9a9a9a" stroke="#9a9a9a" stroke-width="1.51"/><path d="M834,483L851,658L967,538Z" fill="#969696" stroke="#969696" stroke-width="1.51"/><path d="M851,658L839,782L958,721Z" fill="#8c8c8c" stroke="#8c8c8c" stroke-width="1.51"/><path d="M801,194L865,272L958,208Z" fill="#aaaaaa" stroke="#aaaaaa" stroke-width="1.51"/><path d="M865,272L890,449L921,316Z" fill="#a2a2a2" stroke="#a2a2a2" stroke-width="1.51"/><path d="M834,483L766,640L851,658Z" fill="#969696" stroke="#969696" stroke-width="1.51"/><path d="M692,404L834,483L865,272Z" fill="#a2a2a2" stroke="#a2a2a2" stroke-width="1.51"/><path d="M776,257L692,404L865,272Z" fill="#a7a7a7" stroke="#a7a7a7" stroke-width="1.51"/><path d="M865,272L834,483L890,449Z" fill="#a0a0a0" stroke="#a0a0a0" stroke-width="1.51"/><path d="M809,-167L819,-20L912,-96Z" fill="#bebebe" stroke="#bebebe" stroke-width="1.51"/><path d="M699,515L766,640L834,483Z" fill="#9a9a9a" stroke="#9a9a9a" stroke-width="1.51"/><path d="M707,123L801,194L842,43Z" fill="#b3b3b3" stroke="#b3b3b3" stroke-width="1.51"/><path d="M721,694L839,782L851,658Z" fill="#8f8f8f" stroke="#8f8f8f" stroke-width="1.51"/><path d="M766,640L721,694L851,658Z" fill="#939393" stroke="#939393" stroke-width="1.51"/><path d="M801,194L776,257L865,272Z" fill="#ababab" stroke="#ababab" stroke-width="1.51"/><path d="M809,-167L708,-147L819,-20Z" fill="#c1c1c1" stroke="#c1c1c1" stroke-width="1.51"/><path d="M707,123L751,192L801,194Z" fill="#b0b0b0" stroke="#b0b0b0" stroke-width="1.51"/><path d="M819,-20L692,-19L842,43Z" fill="#bababa" stroke="#bababa" stroke-width="1.51"/><path d="M692,-19L707,123L842,43Z" fill="#b8b8b8" stroke="#b8b8b8" stroke-width="1.51"/><path d="M708,-147L692,-19L819,-20Z" fill="#bfbfbf" stroke="#bfbfbf" stroke-width="1.51"/><path d="M721,694L644,735L839,782Z" fill="#8f8f8f" stroke="#8f8f8f" stroke-width="1.51"/><path d="M692,404L699,515L834,483Z" fill="#9f9f9f" stroke="#9f9f9f" stroke-width="1.51"/><path d="M751,192L776,257L801,194Z" fill="#adadad" stroke="#adadad" stroke-width="1.51"/><path d="M699,515L637,655L766,640Z" fill="#989898" stroke="#989898" stroke-width="1.51"/><path d="M668,396L692,404L776,257Z" fill="#a6a6a6" stroke="#a6a6a6" stroke-width="1.51"/><path d="M620,292L668,396L776,257Z" fill="#aaaaaa" stroke="#aaaaaa" stroke-width="1.51"/><path d="M751,192L620,292L776,257Z" fill="#adadad" stroke="#adadad" stroke-width="1.51"/><path d="M654,168L620,292L751,192Z" fill="#afafaf" stroke="#afafaf" stroke-width="1.51"/><path d="M637,655L721,694L766,640Z" fill="#959595" stroke="#959595" stroke-width="1.51"/><path d="M-47,-178L177,-128L374,-159Z" fill="#d4d4d4" stroke="#d4d4d4" stroke-width="1.51"/><path d="M611,549L637,655L699,515Z" fill="#9b9b9b" stroke="#9b9b9b" stroke-width="1.51"/><path d="M707,123L654,168L751,192Z" fill="#b2b2b2" stroke="#b2b2b2" stroke-width="1.51"/><path d="M220,742L-9,781L377,774Z" fill="#9b9b9b" stroke="#9b9b9b" stroke-width="1.51"/><path d="M692,404L668,396L699,515Z" fill="#a2a2a2" stroke="#a2a2a2" stroke-width="1.51"/><path d="M692,-19L610,17L707,123Z" fill="#bbbbbb" stroke="#bbbbbb" stroke-width="1.51"/><path d="M537,-174L622,-120L708,-147Z" fill="#c8c8c8" stroke="#c8c8c8" stroke-width="1.51"/><path d="M622,-120L692,-19L708,-147Z" fill="#c3c3c3" stroke="#c3c3c3" stroke-width="1.51"/><path d="M637,655L644,735L721,694Z" fill="#939393" stroke="#939393" stroke-width="1.51"/><path d="M668,396L611,549L699,515Z" fill="#a0a0a0" stroke="#a0a0a0" stroke-width="1.51"/><path d="M583,35L654,168L707,123Z" fill="#b7b7b7" stroke="#b7b7b7" stroke-width="1.51"/><path d="M610,17L583,35L707,123Z" fill="#bbbbbb" stroke="#bbbbbb" stroke-width="1.51"/><path d="M622,-120L610,17L692,-19Z" fill="#c0c0c0" stroke="#c0c0c0" stroke-width="1.51"/><path d="M538,-19L610,17L622,-120Z" fill="#c2c2c2" stroke="#c2c2c2" stroke-width="1.51"/><path d="M564,257L620,292L654,168Z" fill="#b0b0b0" stroke="#b0b0b0" stroke-width="1.51"/><path d="M550,218L564,257L654,168Z" fill="#b2b2b2" stroke="#b2b2b2" stroke-width="1.51"/><path d="M483,477L611,549L668,396Z" fill="#a3a3a3" stroke="#a3a3a3" stroke-width="1.51"/><path d="M471,424L483,477L668,396Z" fill="#a6a6a6" stroke="#a6a6a6" stroke-width="1.51"/><path d="M620,292L471,424L668,396Z" fill="#a9a9a9" stroke="#a9a9a9" stroke-width="1.51"/><path d="M637,655L568,736L644,735Z" fill="#949494" stroke="#949494" stroke-width="1.51"/><path d="M583,35L550,218L654,168Z" fill="#b6b6b6" stroke="#b6b6b6" stroke-width="1.51"/><path d="M475,69L550,218L583,35Z" fill="#bababa" stroke="#bababa" stroke-width="1.51"/><path d="M611,549L486,673L637,655Z" fill="#999999" stroke="#999999" stroke-width="1.51"/><path d="M564,257L471,424L620,292Z" fill="#adadad" stroke="#adadad" stroke-width="1.51"/><path d="M486,673L568,736L637,655Z" fill="#969696" stroke="#969696" stroke-width="1.51"/><path d="M537,-174L538,-19L622,-120Z" fill="#c6c6c6" stroke="#c6c6c6" stroke-width="1.51"/><path d="M475,69L445,149L550,218Z" fill="#b9b9b9" stroke="#b9b9b9" stroke-width="1.51"/><path d="M538,-19L583,35L610,17Z" fill="#bfbfbf" stroke="#bfbfbf" stroke-width="1.51"/><path d="M438,511L486,673L611,549Z" fill="#9f9f9f" stroke="#9f9f9f" stroke-width="1.51"/><path d="M483,477L438,511L611,549Z" fill="#a2a2a2" stroke="#a2a2a2" stroke-width="1.51"/><path d="M399,263L471,424L564,257Z" fill="#afafaf" stroke="#afafaf" stroke-width="1.51"/><path d="M538,-19L475,69L583,35Z" fill="#bfbfbf" stroke="#bfbfbf" stroke-width="1.51"/><path d="M537,-174L410,-58L538,-19Z" fill="#c7c7c7" stroke="#c7c7c7" stroke-width="1.51"/><path d="M486,673L377,774L568,736Z" fill="#979797" stroke="#979797" stroke-width="1.51"/><path d="M550,218L399,263L564,257Z" fill="#b2b2b2" stroke="#b2b2b2" stroke-width="1.51"/><path d="M445,149L399,263L550,218Z" fill="#b5b5b5" stroke="#b5b5b5" stroke-width="1.51"/><path d="M438,511L374,606L486,673Z" fill="#9f9f9f" stroke="#9f9f9f" stroke-width="1.51"/><path d="M374,-159L410,-58L537,-174Z" fill="#cccccc" stroke="#cccccc" stroke-width="1.51"/><path d="M410,-58L475,69L538,-19Z" fill="#c3c3c3" stroke="#c3c3c3" stroke-width="1.51"/><path d="M399,263L408,425L471,424Z" fill="#adadad" stroke="#adadad" stroke-width="1.51"/><path d="M410,-58L369,94L475,69Z" fill="#c2c2c2" stroke="#c2c2c2" stroke-width="1.51"/><path d="M471,424L408,425L483,477Z" fill="#a8a8a8" stroke="#a8a8a8" stroke-width="1.51"/><path d="M345,669L377,774L486,673Z" fill="#9a9a9a" stroke="#9a9a9a" stroke-width="1.51"/><path d="M374,606L345,669L486,673Z" fill="#9d9d9d" stroke="#9d9d9d" stroke-width="1.51"/><path d="M408,425L438,511L483,477Z" fill="#a7a7a7" stroke="#a7a7a7" stroke-width="1.51"/><path d="M369,94L445,149L475,69Z" fill="#bdbdbd" stroke="#bdbdbd" stroke-width="1.51"/><path d="M399,263L312,375L408,425Z" fill="#afafaf" stroke="#afafaf" stroke-width="1.51"/><path d="M296,201L399,263L445,149Z" fill="#b8b8b8" stroke="#b8b8b8" stroke-width="1.51"/><path d="M369,94L296,201L445,149Z" fill="#bcbcbc" stroke="#bcbcbc" stroke-width="1.51"/><path d="M408,425L265,550L438,511Z" fill="#a7a7a7" stroke="#a7a7a7" stroke-width="1.51"/><path d="M265,550L374,606L438,511Z" fill="#a3a3a3" stroke="#a3a3a3" stroke-width="1.51"/><path d="M303,120L296,201L369,94Z" fill="#bebebe" stroke="#bebebe" stroke-width="1.51"/><path d="M345,669L322,725L377,774Z" fill="#9a9a9a" stroke="#9a9a9a" stroke-width="1.51"/><path d="M272,282L312,375L399,263Z" fill="#b4b4b4" stroke="#b4b4b4" stroke-width="1.51"/><path d="M312,375L265,550L408,425Z" fill="#ababab" stroke="#ababab" stroke-width="1.51"/><path d="M257,-75L369,94L410,-58Z" fill="#c7c7c7" stroke="#c7c7c7" stroke-width="1.51"/><path d="M290,-98L257,-75L410,-58Z" fill="#cbcbcb" stroke="#cbcbcb" stroke-width="1.51"/><path d="M374,-159L290,-98L410,-58Z" fill="#cccccc" stroke="#cccccc" stroke-width="1.51"/><path d="M257,-75L303,120L369,94Z" fill="#c4c4c4" stroke="#c4c4c4" stroke-width="1.51"/><path d="M296,201L272,282L399,263Z" fill="#b7b7b7" stroke="#b7b7b7" stroke-width="1.51"/><path d="M257,-75L212,89L303,120Z" fill="#c5c5c5" stroke="#c5c5c5" stroke-width="1.51"/><path d="M177,-128L290,-98L374,-159Z" fill="#d0d0d0" stroke="#d0d0d0" stroke-width="1.51"/><path d="M322,725L220,742L377,774Z" fill="#999999" stroke="#999999" stroke-width="1.51"/><path d="M265,550L345,669L374,606Z" fill="#a1a1a1" stroke="#a1a1a1" stroke-width="1.51"/><path d="M265,550L227,629L345,669Z" fill="#a2a2a2" stroke="#a2a2a2" stroke-width="1.51"/><path d="M187,-39L212,89L257,-75Z" fill="#cacaca" stroke="#cacaca" stroke-width="1.51"/><path d="M217,530L265,550L312,375Z" fill="#aaaaaa" stroke="#aaaaaa" stroke-width="1.51"/><path d="M170,453L217,530L312,375Z" fill="#adadad" stroke="#adadad" stroke-width="1.51"/><path d="M227,629L322,725L345,669Z" fill="#9e9e9e" stroke="#9e9e9e" stroke-width="1.51"/><path d="M239,253L272,282L296,201Z" fill="#b9b9b9" stroke="#b9b9b9" stroke-width="1.51"/><path d="M227,629L220,742L322,725Z" fill="#9e9e9e" stroke="#9e9e9e" stroke-width="1.51"/><path d="M192,168L296,201L303,120Z" fill="#bebebe" stroke="#bebebe" stroke-width="1.51"/><path d="M272,282L170,453L312,375Z" fill="#b2b2b2" stroke="#b2b2b2" stroke-width="1.51"/><path d="M212,89L192,168L303,120Z" fill="#c1c1c1" stroke="#c1c1c1" stroke-width="1.51"/><path d="M177,-128L257,-75L290,-98Z" fill="#cfcfcf" stroke="#cfcfcf" stroke-width="1.51"/><path d="M192,168L239,253L296,201Z" fill="#bcbcbc" stroke="#bcbcbc" stroke-width="1.51"/><path d="M239,253L170,453L272,282Z" fill="#b5b5b5" stroke="#b5b5b5" stroke-width="1.51"/><path d="M42,733L-9,781L220,742Z" fill="#9f9f9f" stroke="#9f9f9f" stroke-width="1.51"/><path d="M80,282L170,453L239,253Z" fill="#b7b7b7" stroke="#b7b7b7" stroke-width="1.51"/><path d="M217,530L227,629L265,550Z" fill="#a6a6a6" stroke="#a6a6a6" stroke-width="1.51"/><path d="M177,-128L187,-39L257,-75Z" fill="#cecece" stroke="#cecece" stroke-width="1.51"/><path d="M-47,-178L76,-104L177,-128Z" fill="#d6d6d6" stroke="#d6d6d6" stroke-width="1.51"/><path d="M91,622L220,742L227,629Z" fill="#a2a2a2" stroke="#a2a2a2" stroke-width="1.51"/><path d="M217,530L91,622L227,629Z" fill="#a6a6a6" stroke="#a6a6a6" stroke-width="1.51"/><path d="M192,168L80,282L239,253Z" fill="#bcbcbc" stroke="#bcbcbc" stroke-width="1.51"/><path d="M187,-39L67,-24L212,89Z" fill="#cacaca" stroke="#cacaca" stroke-width="1.51"/><path d="M67,-24L86,122L212,89Z" fill="#c8c8c8" stroke="#c8c8c8" stroke-width="1.51"/><path d="M170,453L125,477L217,530Z" fill="#acacac" stroke="#acacac" stroke-width="1.51"/><path d="M125,477L91,622L217,530Z" fill="#aaaaaa" stroke="#aaaaaa" stroke-width="1.51"/><path d="M91,622L42,733L220,742Z" fill="#a1a1a1" stroke="#a1a1a1" stroke-width="1.51"/><path d="M80,282L31,398L170,453Z" fill="#b5b5b5" stroke="#b5b5b5" stroke-width="1.51"/><path d="M86,122L192,168L212,89Z" fill="#c3c3c3" stroke="#c3c3c3" stroke-width="1.51"/><path d="M31,398L125,477L170,453Z" fill="#b0b0b0" stroke="#b0b0b0" stroke-width="1.51"/><path d="M177,-128L76,-104L187,-39Z" fill="#d1d1d1" stroke="#d1d1d1" stroke-width="1.51"/><path d="M86,122L48,207L192,168Z" fill="#c2c2c2" stroke="#c2c2c2" stroke-width="1.51"/><path d="M48,207L80,282L192,168Z" fill="#bfbfbf" stroke="#bfbfbf" stroke-width="1.51"/><path d="M76,-104L67,-24L187,-39Z" fill="#cfcfcf" stroke="#cfcfcf" stroke-width="1.51"/><path d="M67,-24L-1,111L86,122Z" fill="#cacaca" stroke="#cacaca" stroke-width="1.51"/><path d="M14,536L91,622L125,477Z" fill="#ababab" stroke="#ababab" stroke-width="1.51"/><path d="M31,398L14,536L125,477Z" fill="#b0b0b0" stroke="#b0b0b0" stroke-width="1.51"/><path d="M-21,329L31,398L80,282Z" fill="#bababa" stroke="#bababa" stroke-width="1.51"/><path d="M-1,111L48,207L86,122Z" fill="#c5c5c5" stroke="#c5c5c5" stroke-width="1.51"/><path d="M-8,588L42,733L91,622Z" fill="#a6a6a6" stroke="#a6a6a6" stroke-width="1.51"/><path d="M14,536L-8,588L91,622Z" fill="#ababab" stroke="#ababab" stroke-width="1.51"/><path d="M-15,401L14,536L31,398Z" fill="#b3b3b3" stroke="#b3b3b3" stroke-width="1.51"/><path d="M-76,-17L-1,111L67,-24Z" fill="#cecece" stroke="#cecece" stroke-width="1.51"/><path d="M-76,-17L67,-24L76,-104Z" fill="#d1d1d1" stroke="#d1d1d1" stroke-width="1.51"/><path d="M48,207L-21,329L80,282Z" fill="#bdbdbd" stroke="#bdbdbd" stroke-width="1.51"/><path d="M-47,-178L-76,-17L76,-104Z" fill="#d6d6d6" stroke="#d6d6d6" stroke-width="1.51"/><path d="M-21,329L-15,401L31,398Z" fill="#b8b8b8" stroke="#b8b8b8" stroke-width="1.51"/><path d="M-8,588L-103,716L42,733Z" fill="#a6a6a6" stroke="#a6a6a6" stroke-width="1.51"/><path d="M-1,111L-51,192L48,207Z" fill="#c4c4c4" stroke="#c4c4c4" stroke-width="1.51"/><path d="M-51,192L-21,329L48,207Z" fill="#c0c0c0" stroke="#c0c0c0" stroke-width="1.51"/><path d="M-103,716L-9,781L42,733Z" fill="#a2a2a2" stroke="#a2a2a2" stroke-width="1.51"/><path d="M-76,-17L-101,92L-1,111Z" fill="#cdcdcd" stroke="#cdcdcd" stroke-width="1.51"/><path d="M-15,401L-130,532L14,536Z" fill="#b2b2b2" stroke="#b2b2b2" stroke-width="1.51"/><path d="M-154,458L-130,532L-15,401Z" fill="#b5b5b5" stroke="#b5b5b5" stroke-width="1.51"/><path d="M-130,532L-8,588L14,536Z" fill="#afafaf" stroke="#afafaf" stroke-width="1.51"/><path d="M-51,192L-144,274L-21,329Z" fill="#c1c1c1" stroke="#c1c1c1" stroke-width="1.51"/><path d="M-101,92L-51,192L-1,111Z" fill="#c8c8c8" stroke="#c8c8c8" stroke-width="1.51"/><path d="M-163,-46L-76,-17L-47,-178Z" fill="#d7d7d7" stroke="#d7d7d7" stroke-width="1.51"/><path d="M-186,651L-103,716L-8,588Z" fill="#aaaaaa" stroke="#aaaaaa" stroke-width="1.51"/><path d="M-130,532L-186,651L-8,588Z" fill="#adadad" stroke="#adadad" stroke-width="1.51"/><path d="M-132,-188L-163,-46L-47,-178Z" fill="#dbdbdb" stroke="#dbdbdb" stroke-width="1.51"/><path d="M-144,274L-154,458L-21,329Z" fill="#bcbcbc" stroke="#bcbcbc" stroke-width="1.51"/><path d="M-21,329L-154,458L-15,401Z" fill="#b8b8b8" stroke="#b8b8b8" stroke-width="1.51"/><path d="M-101,92L-163,210L-51,192Z" fill="#c8c8c8" stroke="#c8c8c8" stroke-width="1.51"/><path d="M-163,210L-144,274L-51,192Z" fill="#c5c5c5" stroke="#c5c5c5" stroke-width="1.51"/><path d="M-163,-46L-101,92L-76,-17Z" fill="#d2d2d2" stroke="#d2d2d2" stroke-width="1.51"/><path d="M-163,-46L-163,210L-101,92Z" fill="#cecece" stroke="#cecece" stroke-width="1.51"/><path d="M-154,458L-186,651L-130,532Z" fill="#b1b1b1" stroke="#b1b1b1" stroke-width="1.51"/><path d="M-163,210L-154,458L-144,274Z" fill="#c0c0c0" stroke="#c0c0c0" stroke-width="1.51"/><path d="M-163,210L-186,651L-154,458Z" fill="#b9b9b9" stroke="#b9b9b9" stroke-width="1.51"/><path d="M-186,651L-163,210L-163,-46Z" fill="#c3c3c3" stroke="#c3c3c3" stroke-width="1.51"/></svg>